<svg width="131" height="50" viewBox="0 0 131 50" fill="none" xmlns="http://www.w3.org/2000/svg">
<path d="M17.848 45.508C16.936 45.508 15.964 45.496 14.932 45.472C13.9 45.448 12.88 45.412 11.872 45.364C10.888 45.34 9.952 45.292 9.064 45.22C8.2 45.172 7.48 45.112 6.904 45.04V32.656H11.152V35.5H24.472V32.656H28.72V45.004C28.144 45.076 27.424 45.136 26.56 45.184C25.696 45.256 24.76 45.316 23.752 45.364C22.768 45.412 21.76 45.448 20.728 45.472C19.72 45.496 18.76 45.508 17.848 45.508ZM20.224 25.204C20.224 26.116 20.044 26.956 19.684 27.724C19.348 28.492 18.832 29.152 18.136 29.704C17.464 30.256 16.624 30.688 15.616 31C14.608 31.312 13.444 31.468 12.124 31.468C10.804 31.468 9.64 31.312 8.632 31C7.624 30.688 6.772 30.256 6.076 29.704C5.404 29.152 4.888 28.492 4.528 27.724C4.192 26.956 4.024 26.116 4.024 25.204C4.024 24.292 4.192 23.452 4.528 22.684C4.888 21.916 5.404 21.256 6.076 20.704C6.772 20.152 7.624 19.72 8.632 19.408C9.64 19.096 10.804 18.94 12.124 18.94C13.444 18.94 14.608 19.096 15.616 19.408C16.624 19.72 17.464 20.152 18.136 20.704C18.832 21.256 19.348 21.916 19.684 22.684C20.044 23.452 20.224 24.292 20.224 25.204ZM28.72 20.848H33.364V24.268H28.72V30.856H24.472V12.172H28.72V20.848ZM2.08 14.26C2.728 14.38 3.448 14.476 4.24 14.548C5.056 14.596 5.788 14.62 6.436 14.62H10V10.408H14.248V14.62H22.132V18.04H6.4C5.632 18.04 4.792 17.956 3.88 17.788C2.968 17.62 2.164 17.38 1.468 17.068L2.08 14.26ZM11.152 41.98C12.304 42.028 13.456 42.052 14.608 42.052C15.784 42.076 16.864 42.088 17.848 42.088C18.832 42.088 19.888 42.076 21.016 42.052C22.168 42.052 23.32 42.028 24.472 41.98V38.92H11.152V41.98ZM15.976 25.204C15.976 24.412 15.652 23.74 15.004 23.188C14.38 22.636 13.42 22.36 12.124 22.36C10.828 22.36 9.856 22.636 9.208 23.188C8.584 23.74 8.272 24.412 8.272 25.204C8.272 25.996 8.584 26.668 9.208 27.22C9.856 27.772 10.828 28.048 12.124 28.048C13.42 28.048 14.38 27.772 15.004 27.22C15.652 26.668 15.976 25.996 15.976 25.204ZM46.4101 15.448H53.6101V18.868H46.4461V23.188C46.4461 23.812 46.5061 24.388 46.6261 24.916C46.7461 25.444 47.0101 26.008 47.4181 26.608C48.3301 27.904 49.3741 29.104 50.5501 30.208C51.7501 31.288 53.1061 32.344 54.6181 33.376L52.4221 36.544C50.7901 35.536 49.2661 34.372 47.8501 33.052C46.4341 31.708 45.2581 30.352 44.3221 28.984C43.4101 30.4 42.2581 31.792 40.8661 33.16C39.4741 34.528 37.8901 35.776 36.1141 36.904L33.7381 33.736C35.3701 32.656 36.8101 31.516 38.0581 30.316C39.3301 29.116 40.3621 27.88 41.1541 26.608C41.5381 26.008 41.7901 25.444 41.9101 24.916C42.0541 24.388 42.1261 23.812 42.1261 23.188V18.868H38.9581C38.1901 18.868 37.3501 18.784 36.4381 18.616C35.5261 18.448 34.7221 18.208 34.0261 17.896L34.6381 15.088C35.2861 15.208 36.0061 15.304 36.7981 15.376C37.6141 15.424 38.3461 15.448 38.9941 15.448H42.1621V10.552H46.4101V15.448ZM60.9541 22.396H65.7781V25.816H60.9541V43.312H56.7061V12.172H60.9541V22.396ZM92.0721 21.388C92.0721 23.788 91.3641 25.792 89.9481 27.4C88.5561 28.984 86.6241 29.98 84.1521 30.388V35.608C85.1841 35.608 86.2641 35.596 87.3921 35.572C88.5441 35.548 89.6721 35.524 90.7761 35.5C91.8801 35.476 92.9361 35.44 93.9441 35.392C94.9521 35.344 95.8401 35.296 96.6081 35.248V38.488C95.7681 38.56 94.7721 38.632 93.6201 38.704C92.4681 38.776 91.2441 38.836 89.9481 38.884C88.6521 38.932 87.3201 38.968 85.9521 38.992C84.5841 39.016 83.2761 39.028 82.0281 39.028C80.7801 39.028 79.4721 39.016 78.1041 38.992C76.7361 38.968 75.4041 38.944 74.1081 38.92C72.8121 38.872 71.5761 38.824 70.4001 38.776C69.2481 38.704 68.2641 38.632 67.4481 38.56V35.32C68.1921 35.368 69.0681 35.416 70.0761 35.464C71.0841 35.488 72.1401 35.512 73.2441 35.536C74.3721 35.56 75.5001 35.584 76.6281 35.608C77.7801 35.608 78.8721 35.608 79.9041 35.608V30.388C77.4321 29.98 75.4881 28.984 74.0721 27.4C72.6801 25.792 71.9841 23.788 71.9841 21.388C71.9841 20.044 72.2121 18.808 72.6681 17.68C73.1481 16.552 73.8201 15.592 74.6841 14.8C75.5721 13.984 76.6281 13.36 77.8521 12.928C79.1001 12.472 80.4921 12.244 82.0281 12.244C83.5641 12.244 84.9441 12.472 86.1681 12.928C87.4161 13.36 88.4721 13.984 89.3361 14.8C90.2241 15.592 90.8961 16.552 91.3521 17.68C91.8321 18.808 92.0721 20.044 92.0721 21.388ZM76.2321 21.388C76.2321 22.228 76.3761 22.996 76.6641 23.692C76.9521 24.388 77.3481 24.988 77.8521 25.492C78.3801 25.996 78.9921 26.392 79.6881 26.68C80.4081 26.968 81.1881 27.112 82.0281 27.112C82.8681 27.112 83.6361 26.968 84.3321 26.68C85.0521 26.392 85.6641 25.996 86.1681 25.492C86.6961 24.988 87.1041 24.388 87.3921 23.692C87.6801 22.996 87.8241 22.228 87.8241 21.388C87.8241 20.572 87.6801 19.816 87.3921 19.12C87.1041 18.4 86.6961 17.788 86.1681 17.284C85.6641 16.78 85.0521 16.384 84.3321 16.096C83.6361 15.808 82.8681 15.664 82.0281 15.664C81.1881 15.664 80.4081 15.808 79.6881 16.096C78.9921 16.384 78.3801 16.78 77.8521 17.284C77.3481 17.788 76.9521 18.4 76.6641 19.12C76.3761 19.816 76.2321 20.572 76.2321 21.388ZM116.566 24.592V28.3H129.022V31.72H99.8622V28.3H112.318V24.592H103.282V12.856H125.602V24.592H116.566ZM125.566 34.384V45.508H121.318V37.804H102.958V34.384H125.566ZM121.354 16.276H107.53V21.172H121.354V16.276Z" fill="#F5F5F4"/>
<rect x="1" y="6" width="22" height="12.3" fill="#121212"/>
<path d="M4 14.9167H20" stroke="#FF9A8B" stroke-width="3.5"/>
<line x1="12.0167" y1="10" x2="12.0167" y2="19" stroke="#FF9A8B" stroke-width="3.5"/>
<rect x="41" y="4" width="9" height="11.4" fill="#121212"/>
<path d="M39 11.5H51" stroke="#FF9A8B" stroke-width="3"/>
</svg>
