<svg width="24" height="25" viewBox="0 0 24 25" fill="none" xmlns="http://www.w3.org/2000/svg">
<g clip-path="url(#clip0_51_726)">
<path d="M23.5221 6.68547C23.3864 6.17489 23.119 5.70889 22.7466 5.33413C22.3743 4.95936 21.91 4.68897 21.4003 4.55002C19.5239 4.04547 12.0239 4.04547 12.0239 4.04547C12.0239 4.04547 4.52393 4.04547 2.64756 4.55002C2.13786 4.68897 1.67358 4.95936 1.30121 5.33413C0.928842 5.70889 0.661431 6.17489 0.525744 6.68547C0.0239258 8.57002 0.0239258 12.5 0.0239258 12.5C0.0239258 12.5 0.0239258 16.43 0.525744 18.3146C0.661431 18.8251 0.928842 19.2911 1.30121 19.6659C1.67358 20.0407 2.13786 20.3111 2.64756 20.45C4.52393 20.9546 12.0239 20.9546 12.0239 20.9546C12.0239 20.9546 19.5239 20.9546 21.4003 20.45C21.91 20.3111 22.3743 20.0407 22.7466 19.6659C23.119 19.2911 23.3864 18.8251 23.5221 18.3146C24.0239 16.43 24.0239 12.5 24.0239 12.5C24.0239 12.5 24.0239 8.57002 23.5221 6.68547Z" fill="#FF0302"/>
<path d="M9.56934 16.0687V8.9314L15.8421 12.5L9.56934 16.0687Z" fill="#FEFEFE"/>
</g>
<defs>
<clipPath id="clip0_51_726">
<rect width="24" height="24" fill="white" transform="translate(0 0.5)"/>
</clipPath>
</defs>
</svg>
